<?xml version="1.0" encoding="UTF-8"?>
<!DOCTYPE svg PUBLIC "-//W3C//DTD SVG 1.1//EN" "http://www.w3.org/Graphics/SVG/1.1/DTD/svg11.dtd">
<!-- Creator: CorelDRAW 2020 (64-Bit) -->
<svg xmlns="http://www.w3.org/2000/svg" xml:space="preserve" width="606.312mm" height="178.902mm" version="1.1" style="shape-rendering:geometricPrecision; text-rendering:geometricPrecision; image-rendering:optimizeQuality; fill-rule:evenodd; clip-rule:evenodd"
viewBox="0 0 10228 3017.93"
 xmlns:xlink="http://www.w3.org/1999/xlink"
 xmlns:xodm="http://www.corel.com/coreldraw/odm/2003">
 <defs>
  <style type="text/css">
   <![CDATA[
    .fil1 {fill:#434865}
    .fil0 {fill:#434865;fill-rule:nonzero}
   ]]>
  </style>
 </defs>
 <g id="Слой_x0020_1">
  <metadata id="CorelCorpID_0Corel-Layer"/>
  <g id="_1966345759168">
   <path class="fil0" d="M2894.38 3017.93l-60.65 0 155.74 -359.83 46.77 0 156.29 359.83 -60.65 0 -31.87 -74.04 -173.77 0 -31.87 74.04zm183.01 -127.48l-64.25 -150.62 -64.25 150.62 128.51 0zm636.13 -178.92l-126.99 0 0 -53.44 311.52 0 0 53.44 -126.96 0 0 306.39 -57.56 0 0 -306.39zm650.52 -53.44l262.17 0 0 53.44 -204.61 0 0 97.7 177.37 0 0 53.44 -177.37 0 0 101.79 207.18 0 0 53.47 -264.74 0 0 -359.83zm736.37 0l57.56 0 0 306.36 188.16 0 0 53.47 -245.72 0 0 -359.83zm769.76 359.83l-57.56 0 0 -359.83 57.56 0 0 359.83zm487.57 -359.83l262.17 0 0 53.44 -204.6 0 0 97.7 177.37 0 0 53.44 -177.37 0 0 101.79 207.18 0 0 53.47 -264.74 0 0 -359.83zm736.38 0l164.5 0c34.27,0 62.88,10.79 85.85,32.39 23.29,21.57 34.96,48.66 34.96,81.22 0,23.63 -6.52,44.8 -19.54,63.48 -13.02,18.68 -30.32,32.3 -51.92,40.88l85.34 141.87 -64.77 0 -80.19 -132.63 -96.67 0 0 132.63 -57.56 0 0 -359.83zm164.5 53.44l-106.94 0 0 120.3 106.94 0c17.14,0 31.53,-5.72 43.17,-17.22 11.67,-11.47 17.48,-25.78 17.48,-42.91 0,-17.14 -5.81,-31.44 -17.48,-42.94 -11.64,-11.47 -26.03,-17.22 -43.17,-17.22z"/>
   <g>
    <path class="fil0" d="M-0 475.84l1177.57 0 0 282.96 -871.78 0 0 365.15 746.27 0 0 282.99 -746.27 0 0 666.37 -305.79 0 0 -1597.48zm1879.47 0l305.79 0 0 1314.49 805.61 0 0 282.99 -1111.4 0 0 -1597.48zm2826.55 956.2l0 -956.2 305.82 0 0 956.2c0,191.7 -66.94,352.22 -200.83,481.53 -130.85,129.31 -296.7,193.99 -497.53,193.99 -197.77,0 -363.61,-64.68 -497.5,-193.99 -132.37,-130.85 -198.54,-291.35 -198.54,-481.53l0 -956.2 305.79 0 0 956.2c0,112.57 37.28,206.15 111.83,280.7 74.55,74.55 167.36,111.83 278.42,111.83 112.6,0 206.15,-37.28 280.7,-111.83 74.55,-74.55 111.83,-168.13 111.83,-280.7zm1359.12 641.28l-305.79 0 0 -1597.48 305.79 0 0 1597.48zm1416.19 0l-648.12 0 0 -1597.48 648.12 0c237.33,0 435.13,76.81 593.36,230.5 159.75,153.65 239.62,343.07 239.62,568.25 0,225.17 -79.87,414.59 -239.62,568.24 -158.23,153.65 -356.03,230.5 -593.36,230.5zm0 -1314.52l-342.33 0 0 1031.52 342.33 0c146.05,0 268.55,-49.44 367.41,-148.33 98.9,-101.93 148.33,-224.4 148.33,-367.41 0,-146.07 -49.44,-268.55 -148.33,-367.42 -98.87,-98.9 -221.37,-148.36 -367.41,-148.36zm1557.69 -282.96l1177.57 0 0 282.96 -871.78 0 0 365.15 746.27 0 0 282.99 -746.27 0 0 383.38 883.19 0 0 282.99 -1188.99 0 0 -1597.48z"/>
    <polygon class="fil1" points="5879.52,0 6066.12,0 6066.12,305.36 5760.9,305.36 "/>
   </g>
  </g>
 </g>
</svg>
