<?xml version="1.0" encoding="UTF-8"?>
<!DOCTYPE svg PUBLIC "-//W3C//DTD SVG 1.1//EN" "http://www.w3.org/Graphics/SVG/1.1/DTD/svg11.dtd">
<!-- Creator: CorelDRAW 2020 (64-Bit) -->
<svg xmlns="http://www.w3.org/2000/svg" xml:space="preserve" width="570.662mm" height="168.385mm" version="1.1" style="shape-rendering:geometricPrecision; text-rendering:geometricPrecision; image-rendering:optimizeQuality; fill-rule:evenodd; clip-rule:evenodd"
viewBox="0 0 14548.18 4292.74"
 xmlns:xlink="http://www.w3.org/1999/xlink"
 xmlns:xodm="http://www.corel.com/coreldraw/odm/2003">
 <defs>
  <style type="text/css">
   <![CDATA[
    .fil1 {fill:#FEFEFE}
    .fil0 {fill:#FEFEFE;fill-rule:nonzero}
   ]]>
  </style>
 </defs>
 <g id="Слой_x0020_1">
  <metadata id="CorelCorpID_0Corel-Layer"/>
  <g id="_1966360948928">
   <path class="fil0" d="M4146.98 4292.74l-121.37 0 215.67 -511.76 95.78 0 214.95 511.76 -120.64 0 -35.1 -86.28 -214.21 0 -35.08 86.28zm206.89 -190.09l-64.34 -157.18 -64.34 157.18 128.68 0zm862.14 -214.93l-157.91 0 0 -106.74 431.35 0 0 106.74 -157.91 0 0 405.03 -115.52 0 0 -405.03zm870.16 -106.74l382.37 0 0 106.74 -266.11 0 0 93.58 223.71 0 0 106.74 -223.71 0 0 97.97 269.77 0 0 106.74 -386.03 0 0 -511.76zm987.16 0l116.26 0 0 405.03 247.09 0 0 106.74 -363.35 0 0 -511.76zm1076.35 511.76l-116.26 0 0 -511.76 116.26 0 0 511.76zm615.75 -511.76l382.36 0 0 106.74 -266.11 0 0 93.58 223.71 0 0 106.74 -223.71 0 0 97.97 269.77 0 0 106.74 -386.03 0 0 -511.76zm987.16 0l239.81 0c52.14,0 96.02,16.56 131.6,49.72 35.58,32.64 53.36,73.34 53.36,122.08 0,32.18 -8.28,61.54 -24.86,88.1 -16.56,26.58 -38.98,47.16 -67.26,61.78l110.4 190.09 -128.68 0 -98.7 -168.16 -99.42 0 0 168.16 -116.26 0 0 -511.76zm239.81 106.74l-123.55 0 0 130.13 123.55 0c18.52,0 33.86,-6.22 46.06,-18.64 12.18,-12.44 18.26,-27.9 18.26,-46.44 0,-18.52 -6.08,-33.98 -18.26,-46.42 -12.2,-12.42 -27.54,-18.64 -46.06,-18.64z"/>
   <g>
    <path class="fil0" d="M-0 676.86l1674.96 0 0 402.52 -1239.99 0 0 519.37 1061.46 0 0 402.5 -1061.46 0 0 947.85 -434.97 0 0 -2272.24zm2673.33 0l434.97 0 0 1869.72 1145.86 0 0 402.52 -1580.83 0 0 -2272.24zm4020.43 1360.11l0 -1360.11 434.97 0 0 1360.11c0,272.66 -95.23,500.97 -285.66,684.92 -186.11,183.94 -421.98,275.9 -707.63,275.9 -281.33,0 -517.21,-91.96 -707.64,-275.9 -188.27,-186.11 -282.41,-414.42 -282.41,-684.92l0 -1360.11 434.97 0 0 1360.11c0,160.13 53.03,293.22 159.06,399.25 106.03,106.05 238.04,159.06 396.02,159.06 160.13,0 293.22,-53.02 399.25,-159.06 106.03,-106.03 159.06,-239.12 159.06,-399.25zm1933.22 912.13l-434.97 0 0 -2272.24 434.97 0 0 2272.24zm2014.37 0l-921.87 0 0 -2272.24 921.87 0c337.6,0 618.91,109.3 843.98,327.85 227.22,218.58 340.83,487.99 340.83,808.27 0,320.28 -113.61,589.71 -340.83,808.26 -225.07,218.58 -506.39,327.85 -843.98,327.85zm0 -1869.72l-486.9 0 0 1467.21 486.9 0c207.75,0 381.95,-70.32 522.62,-210.98 140.67,-145 210.98,-319.2 210.98,-522.62 0,-207.74 -70.32,-381.95 -210.98,-522.6 -140.67,-140.67 -314.87,-211 -522.62,-211zm2215.63 -402.52l1674.96 0 0 402.52 -1239.99 0 0 519.37 1061.46 0 0 402.5 -1061.46 0 0 545.33 1256.22 0 0 402.52 -1691.19 0 0 -2272.24z"/>
    <polygon class="fil1" points="8363.13,0 8628.56,0 8628.56,434.35 8194.41,434.35 "/>
   </g>
  </g>
 </g>
</svg>
